<svg width="82" height="29" viewBox="0 0 82 29" fill="none" xmlns="http://www.w3.org/2000/svg">
<g opacity="0.4" clip-path="url(#clip0_652_4650)">
<rect width="81.266" height="28.2174" transform="translate(0.539062 0.484375)" fill="white" style="mix-blend-mode:color-burn"/>
<path d="M27.2061 7.20422L24.0926 14.7471L25.4012 7.20422H21.9944L19.8284 23.2383H23.506L30.7032 7.20422H27.2061ZM32.1694 16.4674H35.125L35.9823 13.6223H33.0267L34.0871 10.0935H37.1104L37.9903 7.20422H31.5376L26.7094 23.2383H33.0493L34.1774 20.1947H31.0412L32.1694 16.4674ZM12.9062 26.5223C11.1345 26.5223 9.46652 26.0835 8.00725 25.3099L7.13752 27.0674C8.85964 27.9677 10.8227 28.4775 12.9062 28.4775C16.8443 28.4775 20.3513 26.6556 22.6145 23.8185H19.9259C18.0776 25.4969 15.6134 26.5223 12.9062 26.5223ZM15.0909 20.4443V22.101L19.2605 18.9717L15.2254 15.2636V16.8677H10.9211L15.2254 6.87492V14.238L18.7107 17.4606L18.7973 0.484375H14.9834L1.04877 28.6131L5.67579 28.7017L9.41475 20.4443H15.0909ZM3.88943 21.349C3.02085 19.8484 2.52437 18.1103 2.52437 16.2575C2.52437 11.0971 6.37629 6.82652 11.3924 6.10193L12.4096 4.04853C5.81411 4.30641 0.546875 9.67348 0.546875 16.2576C0.546875 18.9001 1.39536 21.3467 2.83749 23.3458L3.88943 21.349ZM18.7039 23.2383V20.2092L15.0867 23.2383H18.7039ZM70.1401 15.6293C70.9749 15.6293 71.4487 15.1441 71.584 14.6809L73.231 9.23332C73.5469 8.17468 73.0731 7.20427 71.6066 7.20427H65.4021L60.5738 23.2383H63.9806L66.0338 16.4013H67.1619C67.568 16.4013 67.6131 16.688 67.5228 16.9527L65.6277 23.2384H69.0345L70.7943 17.3938C71.1554 16.2469 70.659 15.7175 70.1401 15.6293ZM69.5987 10.4464L68.6962 13.4238C68.5383 13.909 68.2449 14.0413 67.9065 14.0413H66.7333L68.0193 9.78469H69.0797C69.5987 9.78469 69.734 10.0273 69.5987 10.4464ZM43.9464 7.20422L42.0738 13.4017L41.961 7.20422H39.0505L34.2222 23.2383H37.426L39.3889 16.8423L39.6822 23.2383H42.4122L47.2405 7.20422H43.9464ZM77.9462 10.0935H80.9243L81.8042 7.20422H76.5474C75.7351 7.20422 74.9229 7.42477 74.5394 8.54959L72.6667 14.7691C72.3283 15.938 72.6667 16.7099 74.0881 16.7099H75.8931C76.0962 16.7099 76.0962 16.7982 76.051 16.9305L75.2613 19.6433C75.126 20.0403 75.0357 20.1947 74.404 20.1947H71.5612L70.6362 23.2383H76.2089C76.9083 23.2383 77.6529 22.9075 77.8334 22.2678L79.706 16.0483C80.1798 14.4824 79.4127 13.8207 78.1944 13.8207H76.3669L77.337 10.5566C77.4498 10.2037 77.698 10.0935 77.9462 10.0935ZM50.9404 13.6223L50.083 16.4674H50.7824L49.5415 20.5696H48.3909C47.9396 20.5696 47.7365 20.3932 47.8719 19.93L50.6922 10.5786C50.805 10.1816 50.9855 10.0934 51.3465 10.0934H54.6631L55.543 7.20417H50.1056C49.0226 7.20417 48.2781 7.51295 47.917 8.7039L44.4425 20.2608C43.8108 22.3781 45.0968 23.2382 46.6311 23.2382H48.7293L48.3683 24.4954L52.1587 22.6207L54.8661 13.6221H50.9404V13.6223ZM58.521 16.4674H61.4766L62.334 13.6223H59.3784L60.4388 10.0935H63.4621L64.342 7.20422H57.8893L53.061 23.2383H59.4009L60.529 20.1947H57.3929L58.521 16.4674Z" fill="black"/>
</g>
<defs>
<clipPath id="clip0_652_4650">
<rect width="81.266" height="28.2174" fill="white" transform="translate(0.539062 0.484375)"/>
</clipPath>
</defs>
</svg>
