<svg width="97" height="34" viewBox="0 0 97 34" fill="none" xmlns="http://www.w3.org/2000/svg">
<path d="M31.6054 8.09696L27.9142 17.1856L29.4656 8.09696H25.4267L22.8589 27.4169H27.2188L35.7514 8.09696H31.6054V8.09696ZM37.4895 19.2585H40.9935L42.0099 15.8303H38.5059L39.7631 11.5783H43.3473L44.3905 8.09696H36.7406L31.0165 27.417H38.5327L39.8702 23.7496H36.1521L37.4895 19.2585ZM14.6524 31.3739C12.552 31.3739 10.5745 30.8453 8.84452 29.9131L7.81343 32.0308C9.85506 33.1156 12.1823 33.7298 14.6524 33.7298C19.3211 33.7298 23.4788 31.5345 26.1619 28.1161H22.9744C20.7833 30.1384 17.8619 31.3739 14.6524 31.3739ZM17.2424 24.0504V26.0466L22.1857 22.276L17.4019 17.808V19.7408H12.299L17.4019 7.70017V16.5722L21.5338 20.4553L21.6365 0H17.1149L0.59501 33.8932L6.08051 34L10.5132 24.0504H17.2424V24.0504ZM3.96271 25.1404C2.93298 23.3323 2.34439 21.2381 2.34439 19.0056C2.34439 12.7876 6.91096 7.64185 12.8577 6.76877L14.0637 4.29457C6.24448 4.60529 0 11.0723 0 19.0056C0 22.1897 1.0059 25.1377 2.7156 27.5465L3.96271 25.1404V25.1404ZM21.5257 27.417V23.7671L17.2375 27.417H21.5257V27.417ZM82.5051 18.2486C83.4948 18.2486 84.0565 17.6639 84.2169 17.1059L86.1695 10.5419C86.544 9.2663 85.9823 8.09702 84.2437 8.09702H76.888L71.1639 27.417H75.2029L77.6369 19.1788H78.9743C79.4558 19.1788 79.5093 19.5243 79.4023 19.8432L77.1555 27.417H81.1944L83.2807 20.3747C83.7088 18.9927 83.1203 18.3549 82.5051 18.2486ZM81.8632 12.0035L80.7933 15.5911C80.6061 16.1758 80.2583 16.3352 79.8571 16.3352H78.4662L79.9909 11.2062H81.248C81.8632 11.2062 82.0237 11.4986 81.8632 12.0035V12.0035ZM51.4516 8.09696L49.2316 15.5645L49.0978 8.09696H45.6473L39.9232 27.4169H43.7215L46.0485 19.7101L46.3963 27.4169H49.6328L55.3568 8.09696H51.4516V8.09696ZM91.7595 11.5783H95.2902L96.3333 8.09696H90.1012C89.1382 8.09696 88.1753 8.3627 87.7206 9.71804L85.5005 17.2121C85.0993 18.6206 85.5005 19.5507 87.1856 19.5507H89.3255C89.5663 19.5507 89.5663 19.657 89.5127 19.8165L88.5765 23.0852C88.4161 23.5635 88.3091 23.7496 87.5601 23.7496H84.1899L83.0932 27.4169H89.6999C90.5291 27.4169 91.4118 27.0183 91.6258 26.2476L93.8458 18.7535C94.4075 16.8667 93.4981 16.0694 92.0537 16.0694H89.8871L91.0372 12.1363C91.171 11.7112 91.4652 11.5783 91.7595 11.5783V11.5783ZM59.7432 15.8303L58.7268 19.2585H59.5559L58.0848 24.2014H56.7207C56.1857 24.2014 55.9449 23.9888 56.1055 23.4307L59.4489 12.1629C59.5827 11.6845 59.7967 11.5782 60.2247 11.5782H64.1566L65.1998 8.0969H58.7535C57.4696 8.0969 56.5869 8.46895 56.1589 9.90398L52.0398 23.8293C51.2909 26.3805 52.8155 27.4169 54.6344 27.4169H57.1219L56.6939 28.9316L61.1875 26.6728L64.3973 15.8301H59.7432V15.8303ZM68.7303 19.2585H72.2343L73.2507 15.8303H69.7467L71.0039 11.5783H74.5881L75.6312 8.09696H67.9814L62.2573 27.4169H69.7734L71.1109 23.7496H67.3929L68.7303 19.2585Z" fill="white"/>
</svg>
