<svg width="67" height="32" viewBox="0 0 67 32" fill="none" xmlns="http://www.w3.org/2000/svg">
<g clip-path="url(#clip0_652_4652)">
<rect width="65.2714" height="30.9648" transform="translate(0.804688 0.111328)" fill="white" style="mix-blend-mode:color-burn"/>
<path d="M7.80464 11.2957V2.54636C7.80464 2.22216 7.83698 2.02772 8.38816 2.02772H15.8088C17.1052 2.02772 17.8181 3.12969 18.3367 5.20349L18.7579 6.85645H20.0216C20.2482 2.15786 20.4425 0.116211 20.4425 0.116211C20.4425 0.116211 17.2669 0.472561 15.3873 0.472561H5.89313L0.804688 0.310461V1.67156L2.52252 1.99557C3.72153 2.22255 4.01261 2.48148 4.1106 3.58365C4.1106 3.58365 4.20802 6.82411 4.20802 12.1713C4.20802 17.5177 4.1106 20.7262 4.1106 20.7262C4.1106 21.6982 3.72153 22.0546 2.52252 22.2821L0.804688 22.6063V23.9667L5.89313 23.8049H14.3834C16.2952 23.8049 20.7347 23.9667 20.7347 23.9667C20.8315 22.7998 21.4801 17.5177 21.5774 16.9351H20.3784L19.1145 19.8193C18.1097 22.0871 16.6518 22.2494 15.0312 22.2494H10.2024C8.58202 22.2494 7.80425 21.6012 7.80425 20.2079V12.8193C7.80425 12.8193 11.3364 12.8193 12.5675 12.9167C13.4751 12.9818 14.0257 13.2409 14.3177 14.5046L14.7068 16.1897H16.0995L16.0026 11.9441L16.1969 7.66695H14.8038L14.3504 9.54631C14.0584 10.7777 13.8643 11.005 12.6003 11.1342C11.1747 11.2967 7.80406 11.2641 7.80406 11.2641V11.2963H7.80464V11.2957ZM27.021 3.45389C26.5672 5.46301 26.1135 7.01836 24.5256 8.05545C23.5536 8.70327 22.5812 8.92987 22.1928 8.9624V10.1937H25.0768V20.1421C25.0768 22.9294 26.9242 24.2907 29.3867 24.2907C31.2987 24.2907 33.2751 23.4806 33.9559 21.7951L33.2751 20.9201C32.9509 21.4712 31.9146 22.2812 30.6182 22.2812C29.1926 22.2812 28.4148 21.3088 28.4148 18.8465V10.0648L33.2112 10.4215L33.4701 8.21736L28.415 8.412V3.48604L27.021 3.45389ZM37.2614 18.756L36.0301 18.7883C36.0947 19.501 36.1275 20.4087 36.1275 21.2512C36.1275 22.1262 36.0951 22.9363 36.0301 23.325C36.0301 23.325 38.4929 24.2316 40.9882 24.2316C44.3584 24.2316 47.0482 22.6113 47.0482 19.4356C47.0482 13.9921 38.882 14.8024 38.882 11.14C38.882 9.61716 40.2429 9.03364 41.7336 9.03364C42.9002 9.03364 43.8723 9.45486 44.0667 10.0711L44.877 12.5015L46.0762 12.4368C46.1736 11.1404 46.2381 9.64969 46.4328 8.45088C45.3955 7.99712 43.2241 7.73741 41.8641 7.73741C38.6876 7.73741 36.1281 9.13105 36.1281 12.2421C36.1281 17.6536 44.0994 16.5518 44.0994 20.5383C44.0994 21.9635 43.2241 22.9683 41.2479 22.9683C39.4336 22.9683 38.5259 22.0288 38.1701 21.0885L37.2614 18.756ZM56.7929 22.4997C54.9168 27.7402 52.6203 29.0978 50.5503 29.0978C49.6765 29.0978 49.2564 28.7093 49.1265 28.0958L48.6413 25.5721L47.2825 25.6368C47.0238 27.1249 46.765 28.7752 46.4097 30.1334C47.2184 30.7471 48.5762 31.0713 49.6441 31.0713C51.8766 31.0713 55.2726 30.7797 58.3773 23.4051L63.5855 11.1138C64.0064 10.1108 64.1675 10.0137 65.3967 9.52821L66.0761 9.27005V8.13785L63.003 8.29956L59.7038 8.13785V9.27005L60.5443 9.52821C61.385 9.78754 61.7739 10.1108 61.7739 10.6931C61.7739 10.984 61.6765 11.2753 61.5144 11.7277C61.0293 12.9577 58.021 20.2676 57.2132 21.8207L58.0208 21.529C56.5973 18.0034 54.4311 12.1158 54.1073 11.114C54.0426 10.9197 54.0103 10.758 54.0103 10.5955C54.0103 10.0782 54.366 9.65759 55.1425 9.49606L56.21 9.27024V8.13804L51.778 8.29976L48.2524 8.13804V9.27024L48.8348 9.46411C49.6434 9.72285 49.8376 9.94944 50.3228 11.0814C53.0067 17.2276 54.269 20.5911 55.9826 24.9907L56.7929 22.4997Z" fill="#999999"/>
</g>
<defs>
<clipPath id="clip0_652_4652">
<rect width="65.2714" height="30.9648" fill="white" transform="translate(0.804688 0.111328)"/>
</clipPath>
</defs>
</svg>
