<svg width="72" height="34" viewBox="0 0 72 34" fill="none" xmlns="http://www.w3.org/2000/svg">
<path d="M7.68676 12.2792V2.66919C7.68676 2.3131 7.72228 2.09953 8.32754 2.09953H16.4762C17.8998 2.09953 18.6827 3.3099 19.2522 5.58769L19.7148 7.40324H21.1024C21.3513 2.24248 21.5646 0 21.5646 0C21.5646 0 18.0774 0.391402 16.0135 0.391402H5.5877L0 0.213357V1.70834L1.88639 2.06422C3.20303 2.31353 3.52268 2.59793 3.63028 3.80851C3.63028 3.80851 3.73726 7.36771 3.73726 13.2409C3.73726 19.1132 3.63028 22.6373 3.63028 22.6373C3.63028 23.7049 3.20303 24.0963 1.88639 24.3462L0 24.7023V26.1965L5.5877 26.0189H14.911C17.0105 26.0189 21.8855 26.1965 21.8855 26.1965C21.9918 24.9149 22.7041 19.1132 22.8108 18.4733H21.4942L20.1063 21.6411C19.003 24.132 17.402 24.3103 15.6224 24.3103H10.3198C8.54042 24.3103 7.68634 23.5983 7.68634 22.068V13.9526C7.68634 13.9526 11.565 13.9526 12.917 14.0596C13.9135 14.1311 14.5182 14.4157 14.8389 15.8037L15.2661 17.6546H16.7955L16.6891 12.9913L16.9024 8.29346H15.3727L14.8748 10.3577C14.5541 11.7101 14.341 11.9599 12.9529 12.1018C11.3874 12.2802 7.68613 12.2445 7.68613 12.2445V12.2798H7.68676V12.2792V12.2792ZM28.7886 3.66599C28.2903 5.87273 27.792 7.58107 26.0483 8.72018C24.9809 9.43172 23.9131 9.6806 23.4867 9.71634V11.0688H26.6536V21.9957C26.6536 25.0572 28.6822 26.5524 31.3863 26.5524C33.486 26.5524 35.6563 25.6626 36.4039 23.8113L35.6563 22.8502C35.3003 23.4556 34.1623 24.3452 32.7387 24.3452C31.1732 24.3452 30.3192 23.2771 30.3192 20.5726V10.9271L35.5862 11.319L35.8705 8.89801L30.3194 9.11179V3.7013L28.7886 3.66599V3.66599ZM40.0337 20.4732L38.6816 20.5088C38.7526 21.2916 38.7886 22.2886 38.7886 23.2139C38.7886 24.175 38.753 25.0648 38.6816 25.4917C38.6816 25.4917 41.3861 26.4874 44.1262 26.4874C47.827 26.4874 50.7808 24.7078 50.7808 21.2197C50.7808 15.2408 41.8134 16.1308 41.8134 12.1081C41.8134 10.4355 43.3078 9.79458 44.9447 9.79458C46.2259 9.79458 47.2933 10.2572 47.5068 10.9341L48.3966 13.6035L49.7134 13.5325C49.8204 12.1085 49.8912 10.4712 50.105 9.1545C48.9659 8.65611 46.5814 8.37085 45.0881 8.37085C41.5998 8.37085 38.7892 9.90157 38.7892 13.3187C38.7892 19.2625 47.5427 18.0523 47.5427 22.4309C47.5427 23.9963 46.5814 25.0999 44.4113 25.0999C42.419 25.0999 41.4223 24.068 41.0316 23.0352L40.0337 20.4732V20.4732ZM61.4816 24.5852C59.4215 30.3412 56.8996 31.8324 54.6265 31.8324C53.667 31.8324 53.2057 31.4057 53.063 30.7318L52.5302 27.9598L51.0381 28.0308C50.754 29.6654 50.4699 31.478 50.0796 32.9698C50.9677 33.6439 52.4588 34 53.6314 34C56.0829 34 59.8121 33.6796 63.2215 25.5797L68.9407 12.0793C69.4028 10.9777 69.5798 10.8711 70.9296 10.3378L71.6757 10.0542V8.81068L68.301 8.9883L64.6781 8.81068V10.0542L65.6011 10.3378C66.5243 10.6226 66.9514 10.9777 66.9514 11.6173C66.9514 11.9368 66.8444 12.2568 66.6664 12.7537C66.1336 14.1047 62.8302 22.1336 61.9431 23.8394L62.83 23.519C61.2668 19.6467 58.8881 13.18 58.5325 12.0796C58.4615 11.8662 58.4259 11.6886 58.4259 11.5101C58.4259 10.9419 58.8166 10.4799 59.6692 10.3025L60.8415 10.0545V8.81089L55.9747 8.98851L52.1032 8.81089V10.0545L52.7427 10.2674C53.6306 10.5516 53.8439 10.8005 54.3767 12.0438C57.3239 18.7945 58.7101 22.4888 60.5918 27.3212L61.4816 24.5852V24.5852Z" fill="white"/>
</svg>
