<svg width="64" height="34" viewBox="0 0 64 34" fill="none" xmlns="http://www.w3.org/2000/svg">
<path fill-rule="evenodd" clip-rule="evenodd" d="M64 17.0017C64 26.3892 49.6713 33.9995 32.0014 33.9995C14.3268 33.9995 0 26.3892 0 17.0017C0 7.6142 14.3268 0.00390625 32.0014 0.00390625C49.6713 0.00390625 64 7.6142 64 17.0017Z" fill="white"/>
<path fill-rule="evenodd" clip-rule="evenodd" d="M62.6775 16.9878C62.6775 25.6092 48.938 32.5983 31.9913 32.5983C15.0438 32.5983 1.30469 25.6092 1.30469 16.9878C1.30469 8.36668 15.0438 1.37793 31.9913 1.37793C48.938 1.37785 62.6775 8.36668 62.6775 16.9878ZM31.9913 2.6069C15.7084 2.6069 2.50757 9.0456 2.50757 16.9877C2.50757 24.9299 15.7084 31.3686 31.9913 31.3686C48.2737 31.3686 61.474 24.9299 61.474 16.9877C61.474 9.0456 48.2737 2.6069 31.9913 2.6069V2.6069Z" fill="#B7C0BD"/>
<path fill-rule="evenodd" clip-rule="evenodd" d="M60.7131 16.9878C60.7131 24.5031 47.8548 30.5957 31.9935 30.5957C16.1317 30.5957 3.27344 24.5031 3.27344 16.9878C3.27344 9.47301 16.1317 3.38086 31.9935 3.38086C47.8549 3.38086 60.7131 9.47293 60.7131 16.9878ZM50.3997 10.6172H45.474L44.874 12.3547H48.0622L44.4256 13.6303L44.1852 14.335L49.7813 12.476L50.3997 10.6172ZM18.9946 13.6669H16.9882C16.9882 13.6669 18.8478 8.64563 18.9969 8.26601C19.2622 7.59342 19.4206 7.63969 19.4206 7.63969H16.6493C16.9923 7.806 16.6884 8.46149 16.6884 8.46149C16.6884 8.46149 14.4687 14.7235 14.3141 15.0364C14.1595 15.3498 14.0437 15.3892 14.0437 15.3892H18.843L19.5142 13.5346C19.4564 13.7112 18.9946 13.6669 18.9946 13.6669V13.6669ZM27.4131 15.3812H29.6736C29.6736 15.3812 29.5187 15.1488 29.6154 14.8947C29.7494 14.5417 30.9486 11.2353 30.9486 11.2353L31.4699 15.3812H33.5176L36.2018 8.00634C36.2018 8.00634 36.3118 7.66044 36.4614 7.66044L34.2858 7.65396C34.2858 7.65396 34.348 7.90852 34.2705 8.10433C34.1937 8.30013 32.9568 11.6463 32.9568 11.6463L32.4739 7.65404H30.1371C30.1371 7.65404 30.2581 7.84952 30.1807 8.06469C30.1176 8.23927 27.7033 14.953 27.7033 14.953C27.7033 14.953 27.5488 15.3812 27.4131 15.3812V15.3812ZM37.7481 7.65615C37.7481 7.65615 37.9412 7.96922 37.6894 8.69296C37.4383 9.41726 35.4682 14.7984 35.4682 14.7984C35.4682 14.7984 35.3131 15.3046 35.1012 15.4029L38.1919 15.3994C38.1919 15.3994 41.9387 15.5396 43.0981 11.5499C43.0981 11.5499 44.5661 7.61668 40.3164 7.65615H37.7481ZM38.0759 13.6175C38.0759 13.6175 38.0858 13.6144 38.433 13.6144C38.9589 13.6144 39.9326 13.497 40.587 11.8828C41.6623 9.22964 40.162 9.31935 40.162 9.31935H39.5823L38.0759 13.6175ZM10.5895 21.6293H15.515L16.1145 19.8914H12.9266L16.563 18.6161L16.804 17.9117L11.2078 19.7708L10.5895 21.6293ZM19.2214 24.8346C19.1435 24.8346 19.1435 24.5821 19.1435 24.5821L20.0494 22.1467C20.0494 22.1467 21.178 24.3901 21.2555 24.5467C21.3329 24.7035 21.2938 24.8339 21.2938 24.8339H23.9937C23.7362 24.8339 23.4706 24.3382 23.4706 24.3382L22.1265 21.8949C24.0065 21.8949 24.6078 20.0071 24.6078 20.0071C25.535 17.0066 22.4146 17.0847 22.4146 17.0847H19.2214C19.4529 17.3457 19.2724 17.8937 19.2724 17.8937C19.2724 17.8937 17.2893 23.6374 17.1351 24.0813C16.9804 24.5248 16.6972 24.8346 16.6972 24.8346H19.2214V24.8346ZM21.135 18.8664L20.6116 20.4249H21.101C21.101 20.4249 22.0542 20.5099 22.4059 19.7421C22.4059 19.7421 22.8174 18.8624 21.6673 18.8624C21.4155 18.8624 21.135 18.8664 21.135 18.8664V18.8664ZM47.1582 24.8631C46.9651 24.867 47.0996 24.3882 47.0996 24.3882L47.9079 22.175C47.9079 22.175 48.9975 24.4189 49.074 24.5759C49.1515 24.7323 49.1131 24.8627 49.1131 24.8627H51.909C51.6511 24.8627 51.3677 24.367 51.3677 24.367L50.023 21.9229C51.904 21.9229 52.4698 20.1032 52.4698 20.1032C53.4574 16.9613 50.3122 17.1135 50.3122 17.1135H47.1442C47.3765 17.3745 47.1962 17.9224 47.1962 17.9224C47.1962 17.9224 45.1303 23.6882 44.9753 24.1313C44.8209 24.5758 44.5243 24.8587 44.5243 24.8587L47.1582 24.8631ZM48.9992 20.453C48.9992 20.453 49.9451 20.5254 50.2346 19.7746C50.5763 18.8902 49.7236 18.9136 49.7236 18.9136H49.0244L48.5094 20.453H48.9992ZM27.9467 25.0263C30.7338 25.0263 32.3923 22.2569 32.3923 20.27C32.3923 18.1858 31.5466 16.8852 29.6154 16.8852C27.1515 16.8852 25.5442 18.7792 25.1294 21.1339C24.7482 23.2992 25.9553 25.0263 27.9467 25.0263ZM28.1222 23.195C28.8174 23.325 29.5818 22.8182 29.9809 21.1988C30.5862 18.7482 29.4706 18.728 29.267 18.7028C28.6502 18.6265 27.8267 19.3462 27.4922 20.8467C27.339 21.532 27.1765 23.0174 28.1222 23.195V23.195ZM33.0538 17.1135C33.0538 17.1135 33.2455 17.2178 33.2455 17.7131V24.4188C33.2455 24.4188 33.2193 24.7859 33.0823 24.8627H35.1531C35.1531 24.8627 35.1531 24.7056 35.3586 24.4448C35.5649 24.1839 39.8658 18.3401 39.8658 18.3401C39.8658 18.3401 40.8466 17.1135 41.1038 17.1135H38.14C38.14 17.1135 38.3722 17.2703 38.1919 17.5572C38.0116 17.8443 35.3771 21.8361 35.3771 21.8361L35.4102 17.8097C35.4102 17.8097 35.4055 17.1641 35.6613 17.1099L33.0538 17.1135ZM45.5735 18.9417L46.2431 17.1118L41.2214 17.1123C41.2214 17.1123 41.4014 17.2733 41.1702 17.9254C40.938 18.5783 38.9034 24.1342 38.9034 24.1342C38.9034 24.1342 38.5429 24.8645 38.4405 24.8645H43.6166L44.2349 23.0123C44.2349 23.0123 44.1578 23.1165 43.6684 23.1165H41.4789L41.943 21.8641H43.6421C43.6421 21.8641 44.0031 21.8382 44.0802 21.9427L44.7754 19.963C44.7754 19.963 44.7246 20.1421 44.2602 20.1421H42.6119L43.102 18.7597H45.1877C45.1877 18.7598 45.4711 18.7202 45.5735 18.9417V18.9417ZM19.3933 15.3882H21.8707C21.8707 15.3882 21.863 15.1954 21.9276 15.0702C22.0454 14.8441 22.3527 14.2986 22.3527 14.2986H24.8462L24.851 14.9791C24.851 14.9791 24.8638 15.2137 24.6802 15.3947H27.1529C27.1529 15.3947 26.9692 15.2902 26.9354 14.9821L26.6252 8.17257C26.6252 8.17257 26.6118 7.73735 26.8163 7.64569H24.3634C24.3634 7.64569 24.5352 7.86079 24.2068 8.34997C23.8787 8.83924 19.6884 15.1334 19.6884 15.1334C19.6884 15.1334 19.6051 15.2953 19.3933 15.3882V15.3882ZM24.7986 10.2812L23.4218 12.5505H24.8184L24.7986 10.2812Z" fill="#B7C0BD"/>
</svg>
