<svg width="36" height="34" viewBox="0 0 36 34" fill="none" xmlns="http://www.w3.org/2000/svg">
<path d="M0 3.94949C0 2.80469 0.402529 1.86025 1.20755 1.11616C2.01258 0.372042 3.05915 0 4.34719 0C5.61226 0 6.63578 0.366307 7.41783 1.09899C8.22285 1.85455 8.62538 2.83903 8.62538 4.05253C8.62538 5.15151 8.23438 6.06732 7.45233 6.8C6.64731 7.55556 5.58925 7.93333 4.27819 7.93333H4.24369C2.97862 7.93333 1.9551 7.55556 1.17305 6.8C0.391006 6.04444 0 5.09426 0 3.94949ZM0.44852 34V11.0586H8.10786V34H0.44852ZM12.3516 34H20.0109V21.1899C20.0109 20.3885 20.1029 19.7703 20.2869 19.3354C20.6089 18.5569 21.0977 17.8986 21.7532 17.3606C22.4087 16.8225 23.231 16.5535 24.2201 16.5535C26.7962 16.5535 28.0843 18.2821 28.0843 21.7394V34H35.7436V20.8465C35.7436 17.4579 34.9386 14.8879 33.3285 13.1364C31.7184 11.3848 29.5908 10.5091 26.9457 10.5091C23.9786 10.5091 21.667 11.7798 20.0109 14.3212V14.3899H19.9764L20.0109 14.3212V11.0586H12.3516C12.3975 11.7912 12.4206 14.0693 12.4206 17.8929C12.4206 21.7165 12.3975 27.0855 12.3516 34Z" fill="white"/>
</svg>
