<svg width="26" height="14" viewBox="0 0 26 14" fill="none" xmlns="http://www.w3.org/2000/svg">
<g clip-path="url(#clip0_662_4124)">
<rect width="25.5145" height="13.4506" fill="white" style="mix-blend-mode:color-burn"/>
<path fill-rule="evenodd" clip-rule="evenodd" d="M25.5145 6.72637C25.5145 10.4401 19.8021 13.4508 12.7578 13.4508C5.71157 13.4508 0 10.4401 0 6.72637C0 3.01262 5.71157 0.00195312 12.7578 0.00195312C19.8021 0.00195312 25.5145 3.01262 25.5145 6.72637Z" fill="white"/>
<path fill-rule="evenodd" clip-rule="evenodd" d="M24.9827 6.72122C24.9827 10.1319 19.5053 12.8968 12.7493 12.8968C5.99291 12.8968 0.515625 10.1319 0.515625 6.72122C0.515625 3.31068 5.99291 0.545898 12.7493 0.545898C19.5053 0.545866 24.9827 3.31068 24.9827 6.72122ZM12.7493 1.03208C6.25788 1.03208 0.995169 3.57926 0.995169 6.72119C0.995169 9.86318 6.25788 12.4104 12.7493 12.4104C19.2405 12.4104 24.5029 9.86318 24.5029 6.72119C24.5029 3.57926 19.2405 1.03208 12.7493 1.03208V1.03208Z" fill="#B7C0BD"/>
<path fill-rule="evenodd" clip-rule="evenodd" d="M24.196 6.72087C24.196 9.69396 19.0698 12.1042 12.7465 12.1042C6.42299 12.1042 1.29688 9.69396 1.29688 6.72087C1.29688 3.74797 6.42299 1.33789 12.7465 1.33789C19.0699 1.33789 24.196 3.74794 24.196 6.72087ZM20.0844 4.20062H18.1207L17.8815 4.888H19.1525L17.7027 5.39262L17.6069 5.67139L19.8379 4.93596L20.0844 4.20062ZM7.56434 5.40708H6.76443C6.76443 5.40708 7.50579 3.42066 7.56524 3.27048C7.67099 3.0044 7.73414 3.02271 7.73414 3.02271H6.62933C6.76609 3.0885 6.64493 3.34781 6.64493 3.34781C6.64493 3.34781 5.76002 5.8251 5.69837 5.94886C5.63676 6.07287 5.59058 6.08845 5.59058 6.08845H7.50387L7.77149 5.35475C7.74843 5.42461 7.56434 5.40708 7.56434 5.40708V5.40708ZM10.9205 6.08528H11.8217C11.8217 6.08528 11.7599 5.99336 11.7985 5.89281C11.8519 5.75315 12.3299 4.44513 12.3299 4.44513L12.5378 6.08528H13.3541L14.4242 3.16775C14.4242 3.16775 14.468 3.03091 14.5277 3.03091L13.6604 3.02835C13.6604 3.02835 13.6852 3.12905 13.6543 3.20652C13.6236 3.28398 13.1305 4.60774 13.1305 4.60774L12.938 3.02838H12.0064C12.0064 3.02838 12.0547 3.10571 12.0238 3.19084C11.9987 3.2599 11.0362 5.9159 11.0362 5.9159C11.0362 5.9159 10.9746 6.08528 10.9205 6.08528V6.08528ZM15.0407 3.02921C15.0407 3.02921 15.1176 3.15307 15.0173 3.43938C14.9172 3.72592 14.1317 5.85472 14.1317 5.85472C14.1317 5.85472 14.0699 6.05498 13.9854 6.09387L15.2176 6.09246C15.2176 6.09246 16.7113 6.14796 17.1735 4.56959C17.1735 4.56959 17.7587 3.0136 16.0645 3.02921H15.0407ZM15.1714 5.38755C15.1714 5.38755 15.1753 5.38633 15.3137 5.38633C15.5234 5.38633 15.9116 5.33987 16.1724 4.7013C16.6011 3.65169 16.003 3.68719 16.003 3.68719H15.7719L15.1714 5.38755ZM4.21353 8.55705H6.17715L6.41613 7.86955H5.14525L6.59495 7.36503L6.69101 7.08638L4.46 7.82181L4.21353 8.55705ZM7.65473 9.82509C7.6237 9.82509 7.6237 9.72519 7.6237 9.72519L7.98485 8.76173C7.98485 8.76173 8.43477 9.64923 8.46567 9.71121C8.49651 9.77322 8.48092 9.82481 8.48092 9.82481H9.55728C9.45465 9.82481 9.34873 9.62872 9.34873 9.62872L8.81289 8.66212C9.56238 8.66212 9.80212 7.9153 9.80212 7.9153C10.1717 6.72828 8.92774 6.75919 8.92774 6.75919H7.65473C7.74703 6.86246 7.67508 7.07923 7.67508 7.07923C7.67508 7.07923 6.88448 9.35148 6.82302 9.52708C6.76134 9.70252 6.64844 9.82509 6.64844 9.82509H7.65473V9.82509ZM8.41761 7.46403L8.20897 8.08058H8.40406C8.40406 8.08058 8.78409 8.11421 8.9243 7.81049C8.9243 7.81049 9.08832 7.46246 8.62983 7.46246C8.52946 7.46246 8.41761 7.46403 8.41761 7.46403V7.46403ZM18.7921 9.83635C18.7152 9.83792 18.7688 9.6485 18.7688 9.6485L19.091 8.77295C19.091 8.77295 19.5254 9.66062 19.5559 9.72275C19.5868 9.7846 19.5715 9.83619 19.5715 9.83619H20.6861C20.5833 9.83619 20.4703 9.6401 20.4703 9.6401L19.9342 8.67321C20.6841 8.67321 20.9097 7.95333 20.9097 7.95333C21.3034 6.71039 20.0495 6.7706 20.0495 6.7706H18.7866C18.8791 6.87384 18.8073 7.09061 18.8073 7.09061C18.8073 7.09061 17.9837 9.37158 17.9219 9.54686C17.8603 9.72272 17.7421 9.83462 17.7421 9.83462L18.7921 9.83635ZM19.5261 8.09171C19.5261 8.09171 19.9032 8.12037 20.0186 7.82335C20.1548 7.47346 19.8149 7.48272 19.8149 7.48272H19.5361L19.3308 8.09171H19.5261ZM11.1332 9.90092C12.2443 9.90092 12.9055 8.80534 12.9055 8.01931C12.9055 7.19478 12.5684 6.68028 11.7985 6.68028C10.8162 6.68028 10.1754 7.42953 10.0101 8.36106C9.85809 9.21768 10.3393 9.90092 11.1332 9.90092ZM11.2032 9.17645C11.4803 9.22788 11.785 9.0274 11.9442 8.38674C12.1855 7.41729 11.7407 7.4093 11.6595 7.39933C11.4136 7.36913 11.0854 7.65384 10.952 8.24746C10.8909 8.51858 10.8261 9.1062 11.2032 9.17645V9.17645ZM13.1692 6.7706C13.1692 6.7706 13.2456 6.81183 13.2456 7.00779V9.66059C13.2456 9.66059 13.2352 9.80582 13.1806 9.83619H14.0061C14.0061 9.83619 14.0061 9.77405 14.0881 9.67088C14.1703 9.56767 15.8849 7.25582 15.8849 7.25582C15.8849 7.25582 16.2759 6.7706 16.3784 6.7706H15.1969C15.1969 6.7706 15.2895 6.83261 15.2176 6.94611C15.1457 7.0597 14.0954 8.63887 14.0954 8.63887L14.1086 7.04601C14.1086 7.04601 14.1068 6.79061 14.2087 6.76916L13.1692 6.7706ZM18.1604 7.49385L18.4273 6.76989L16.4254 6.77012C16.4254 6.77012 16.4971 6.83379 16.4049 7.09176C16.3124 7.35005 15.5013 9.54802 15.5013 9.54802C15.5013 9.54802 15.3575 9.83693 15.3167 9.83693H17.3802L17.6267 9.10418C17.6267 9.10418 17.596 9.14538 17.4009 9.14538H16.528L16.713 8.64996H17.3904C17.3904 8.64996 17.5343 8.63971 17.5651 8.68103L17.8422 7.89786C17.8422 7.89786 17.822 7.96872 17.6368 7.96872H16.9797L17.1751 7.42184H18.0066C18.0066 7.42187 18.1195 7.40619 18.1604 7.49385V7.49385ZM7.72327 6.08804H8.71093C8.71093 6.08804 8.70787 6.01179 8.73361 5.96226C8.78055 5.87281 8.90309 5.657 8.90309 5.657H9.89713L9.89904 5.92622C9.89904 5.92622 9.90415 6.01901 9.83098 6.0906H10.8167C10.8167 6.0906 10.7435 6.04927 10.7301 5.92741L10.6064 3.23351C10.6064 3.23351 10.601 3.06134 10.6826 3.02508H9.70469C9.70469 3.02508 9.77316 3.11017 9.64224 3.30369C9.51145 3.49725 7.84092 5.98727 7.84092 5.98727C7.84092 5.98727 7.80772 6.05129 7.72327 6.08804V6.08804ZM9.87819 4.0677L9.32931 4.96546H9.88606L9.87819 4.0677Z" fill="#B7C0BD"/>
</g>
<defs>
<clipPath id="clip0_662_4124">
<rect width="25.5145" height="13.4506" fill="white"/>
</clipPath>
</defs>
</svg>
