<svg width="14" height="13" viewBox="0 0 14 13" fill="none" xmlns="http://www.w3.org/2000/svg">
<g opacity="0.7" clip-path="url(#clip0_652_4777)">
<rect width="12.4872" height="12.0465" transform="translate(0.617188 0.702148)" fill="white" style="mix-blend-mode:color-burn"/>
<path d="M0.617188 2.10149C0.617188 1.69587 0.757813 1.36125 1.03905 1.09761C1.32029 0.833966 1.68592 0.702148 2.1359 0.702148C2.57786 0.702148 2.93543 0.831934 3.20865 1.09153C3.48989 1.35923 3.63051 1.70804 3.63051 2.13799C3.63051 2.52737 3.49391 2.85185 3.2207 3.11144C2.93946 3.37914 2.56982 3.51299 2.1118 3.51299H2.09974C1.65778 3.51299 1.30021 3.37914 1.027 3.11144C0.753788 2.84374 0.617188 2.50709 0.617188 2.10149ZM0.77388 12.7486V4.62029H3.44971V12.7486H0.77388ZM4.93227 12.7486H7.6081V8.2099C7.6081 7.92596 7.64025 7.70694 7.70453 7.55282C7.81702 7.277 7.98778 7.04377 8.21679 6.85315C8.4458 6.66251 8.73307 6.5672 9.0786 6.5672C9.97858 6.5672 10.4286 7.17966 10.4286 8.40459V12.7486H13.1044V8.08821C13.1044 6.88762 12.8232 5.97704 12.2607 5.35647C11.6982 4.73589 10.9549 4.4256 10.0308 4.4256C8.99423 4.4256 8.18666 4.87582 7.6081 5.77627V5.8006H7.59605L7.6081 5.77627V4.62029H4.93227C4.94833 4.87988 4.95637 5.68703 4.95637 7.04175C4.95637 8.39647 4.94833 10.2988 4.93227 12.7486Z" fill="white"/>
</g>
<defs>
<clipPath id="clip0_652_4777">
<rect width="12.4872" height="12.0465" fill="white" transform="translate(0.617188 0.702148)"/>
</clipPath>
</defs>
</svg>
