<svg width="33" height="33" viewBox="0 0 33 33" fill="none" xmlns="http://www.w3.org/2000/svg">
<g opacity="0.4" clip-path="url(#clip0_652_4654)">
<rect width="32.5636" height="31.4143" transform="translate(0.0703125 0.886719)" fill="white" style="mix-blend-mode:color-burn"/>
<path d="M0.0703125 4.53584C0.0703125 3.4781 0.43703 2.60549 1.17043 1.91799C1.90384 1.23047 2.85729 0.886719 4.03074 0.886719C5.18326 0.886719 6.11572 1.22517 6.82819 1.90213C7.56159 2.60022 7.92831 3.50984 7.92831 4.63104C7.92831 5.64645 7.57209 6.4926 6.85962 7.16956C6.12622 7.86765 5.1623 8.2167 3.96788 8.2167H3.93645C2.78393 8.2167 1.85147 7.86765 1.139 7.16956C0.426531 6.47146 0.0703125 5.59355 0.0703125 4.53584ZM0.478928 32.3009V11.1043H7.45683V32.3009H0.478928ZM11.323 32.3009H18.3009V20.4651C18.3009 19.7246 18.3847 19.1535 18.5523 18.7516C18.8457 18.0323 19.291 17.4241 19.8882 16.927C20.4854 16.4299 21.2345 16.1813 22.1356 16.1813C24.4825 16.1813 25.656 17.7784 25.656 20.9728V32.3009H32.6339V20.1477C32.6339 17.0169 31.9005 14.6423 30.4336 13.024C28.9668 11.4057 27.0285 10.5966 24.6187 10.5966C21.9156 10.5966 19.8096 11.7706 18.3009 14.1188V14.1822H18.2694L18.3009 14.1188V11.1043H11.323C11.3649 11.7812 11.3858 13.886 11.3858 17.4188C11.3858 20.9516 11.3649 25.9123 11.323 32.3009Z" fill="black"/>
</g>
<defs>
<clipPath id="clip0_652_4654">
<rect width="32.5636" height="31.4143" fill="white" transform="translate(0.0703125 0.886719)"/>
</clipPath>
</defs>
</svg>
