<svg width="80" height="81" viewBox="0 0 80 81" fill="none" xmlns="http://www.w3.org/2000/svg">
<path d="M76.657 64.6595C82.5581 36.8213 77.7539 18.4603 74.6812 12.8314L74.6699 12.8109L74.6609 12.7893C73.4091 9.80532 70.5245 5.6786 65.9615 3.04548C61.6727 0.570617 55.8708 -0.603462 48.4743 1.77812L48.4788 1.7914C21.519 10.8994 8.1688 24.3894 4.89128 29.9015L4.87932 29.9217L4.86535 29.9405C2.93572 32.5381 0.854889 37.1229 0.914456 42.3908C0.970545 47.3512 2.92388 52.9531 8.767 58.1115L8.76956 58.1084C30.3376 76.1878 48.7051 80.4958 55.0985 80.4152L55.1218 80.4149L55.145 80.417C58.3545 80.7046 63.3436 80.0921 67.8245 77.3158C71.6319 74.9567 75.0958 71.0218 76.7877 64.6872L76.657 64.6595Z" fill="#F7F3FA"/>
</svg>
