<svg width="32" height="12" viewBox="0 0 32 12" fill="none" xmlns="http://www.w3.org/2000/svg">
<g opacity="0.6" clip-path="url(#clip0_652_4773)">
<rect width="31.1632" height="10.8206" transform="translate(0.820312 0.31543)" fill="white" style="mix-blend-mode:color-burn"/>
<path d="M11.0434 2.8923L9.84944 5.78478L10.3512 2.8923H9.04483L8.21424 9.04092H9.6245L12.3844 2.8923H11.0434ZM12.9467 6.44447H14.0801L14.4088 5.35346H13.2754L13.6821 4.00025H14.8414L15.1788 2.8923H12.7044L10.8529 9.04094H13.2841L13.7167 7.8738H12.5141L12.9467 6.44447ZM5.55977 10.3002C4.88038 10.3002 4.24075 10.132 3.68116 9.83533L3.34764 10.5093C4.00802 10.8545 4.76081 11.05 5.55977 11.05C7.06992 11.05 8.41475 10.3514 9.28262 9.26342H8.25161C7.54286 9.90704 6.59791 10.3002 5.55977 10.3002ZM6.39755 7.96952V8.60481L7.99648 7.4048L6.44912 5.98285V6.59799H4.79855L6.44912 2.76603V5.58955L7.78563 6.82535L7.81884 0.31543H6.35631L1.01277 11.102L2.78711 11.136L4.2209 7.96952H6.39755ZM2.10209 8.31641C1.76901 7.74099 1.57863 7.07449 1.57863 6.364C1.57863 4.38511 3.05573 2.74746 4.97927 2.46961L5.36934 1.68218C2.84015 1.78107 0.820312 3.8392 0.820312 6.36401C0.820312 7.37735 1.14568 8.31557 1.6987 9.08216L2.10209 8.31641ZM7.78302 9.04094V7.87936L6.39593 9.04094H7.78302ZM27.5074 6.12309C27.8275 6.12309 28.0092 5.93702 28.0611 5.75942L28.6927 3.67041C28.8138 3.26445 28.6321 2.89232 28.0697 2.89232H25.6905L23.839 9.04094H25.1454L25.9327 6.41911H26.3653C26.521 6.41911 26.5383 6.52907 26.5037 6.63056L25.777 9.04096H27.0834L27.7582 6.79971C27.8967 6.3599 27.7064 6.15692 27.5074 6.12309ZM27.2998 4.13558L26.9537 5.27734C26.8931 5.46341 26.7806 5.51415 26.6508 5.51415H26.201L26.6941 3.88184H27.1007C27.2997 3.88184 27.3517 3.97487 27.2998 4.13558ZM17.4628 2.8923L16.7447 5.26886L16.7015 2.8923H15.5854L13.7339 9.04092H14.9624L15.7151 6.58822L15.8276 9.04092H16.8745L18.726 2.8923H17.4628ZM30.5008 4.00025H31.6428L31.9802 2.8923H29.9644C29.6529 2.8923 29.3415 2.97688 29.1944 3.40821L28.4763 5.79323C28.3465 6.24148 28.4763 6.53748 29.0213 6.53748H29.7135C29.7914 6.53748 29.7914 6.57131 29.774 6.62207L29.4712 7.66233C29.4193 7.81457 29.3847 7.87378 29.1425 7.87378H28.0523L27.6976 9.04092H29.8346C30.1028 9.04092 30.3883 8.91406 30.4575 8.66878L31.1756 6.28376C31.3573 5.68328 31.0632 5.42956 30.596 5.42956H29.8952L30.2672 4.17785C30.3104 4.04253 30.4056 4.00025 30.5008 4.00025ZM20.1448 5.35346L19.816 6.44447H20.0842L19.6084 8.01757H19.1672C18.9941 8.01757 18.9162 7.9499 18.9682 7.7723L20.0496 4.1863C20.0929 4.03406 20.1621 4.00023 20.3006 4.00023H21.5724L21.9098 2.89228H19.8247C19.4094 2.89228 19.1239 3.01069 18.9855 3.46739L17.6531 7.89915C17.4108 8.71106 17.904 9.0409 18.4923 9.0409H19.2969L19.1585 9.52298L20.612 8.80409L21.6502 5.3534H20.1448V5.35346ZM23.0518 6.44447H24.1852L24.5139 5.35346H23.3805L23.7872 4.00025H24.9465L25.2839 2.8923H22.8095L20.958 9.04092H23.3892L23.8218 7.87378H22.6192L23.0518 6.44447Z" fill="white"/>
</g>
<defs>
<clipPath id="clip0_652_4773">
<rect width="31.1632" height="10.8206" fill="white" transform="translate(0.820312 0.31543)"/>
</clipPath>
</defs>
</svg>
