<svg width="34" height="34" viewBox="0 0 34 34" fill="none" xmlns="http://www.w3.org/2000/svg">
<path fill-rule="evenodd" clip-rule="evenodd" d="M3.4 0H30.6C32.4779 0 34 1.52211 34 3.4V30.6C34 32.4779 32.4779 34 30.6 34H3.4C1.52211 34 0 32.4779 0 30.6V3.4C0 1.52211 1.52211 0 3.4 0Z" fill="#8E7A7A"/>
<path fill-rule="evenodd" clip-rule="evenodd" d="M21.3447 31.2797C22.3793 31.2797 23.218 30.4478 23.218 29.4216C23.218 28.3955 22.3793 27.5635 21.3447 27.5635H21.0625C22.0971 27.5635 22.9358 28.3955 22.9358 29.4216C22.9358 30.4478 22.0971 31.2797 21.0625 31.2797H21.3447Z" fill="white"/>
<path fill-rule="evenodd" clip-rule="evenodd" d="M21.0462 27.5635H20.764C19.7295 27.5635 18.8906 28.3955 18.8906 29.4216C18.8906 30.4478 19.7295 31.2797 20.764 31.2797H21.0462C20.0115 31.2797 19.1728 30.4478 19.1728 29.4216C19.1728 28.3955 20.0115 27.5635 21.0462 27.5635V27.5635Z" fill="white"/>
<path d="M21.0517 30.3274C21.5549 30.3274 21.9627 29.9229 21.9627 29.4239C21.9627 28.925 21.5549 28.5205 21.0517 28.5205C20.5485 28.5205 20.1406 28.925 20.1406 29.4239C20.1406 29.9229 20.5485 30.3274 21.0517 30.3274Z" fill="#C1B9B9"/>
<path fill-rule="evenodd" clip-rule="evenodd" d="M6.80469 26.7246V27.6664H7.90792V31.2552H9.01156V27.6918H9.90957L10.2175 26.7246H6.80469ZM15.8371 26.7246V27.6664H16.9404V31.2552H18.044V27.6918H18.942L19.2499 26.7246H15.8371ZM10.423 27.2591C10.423 26.964 10.6638 26.7246 10.9614 26.7246C11.2592 26.7246 11.5004 26.964 11.5004 27.2591C11.5004 27.5542 11.2594 27.7936 10.9614 27.7936C10.6638 27.7934 10.423 27.5542 10.423 27.2591ZM10.423 28.1755H11.5004V31.2552H10.423V28.1755ZM11.9624 26.7246V31.2552H13.0402V30.0845L13.3738 29.7788L14.4257 31.2806H15.5804L14.0663 29.0917L15.4263 27.768H14.1177L13.0402 28.837V26.7246H11.9624ZM23.5863 26.7246V31.2552H24.6642V30.0845L24.9977 29.7788L26.0499 31.2806H27.2047L25.6906 29.0917L27.0506 27.768H25.742L24.6642 28.837V26.7246H23.5863Z" fill="white"/>
<path fill-rule="evenodd" clip-rule="evenodd" d="M21.9273 11.0408C23.4157 12.1042 25.2392 12.7299 27.2085 12.7299V8.9422C26.8358 8.94235 26.464 8.90347 26.0994 8.82619V11.8077C24.1303 11.8077 22.3071 11.182 20.8183 10.1186V17.8482C20.8183 21.7149 17.6821 24.8493 13.8136 24.8493C12.3702 24.8493 11.0286 24.4131 9.91406 23.6651C11.1861 24.965 12.9599 25.7715 14.9224 25.7715C18.7912 25.7715 21.9275 22.6371 21.9275 18.7702V11.0408H21.9273ZM23.2955 7.21949C22.5349 6.38894 22.0355 5.31549 21.9273 4.12875V3.6416H20.8763C21.1409 5.14984 22.0432 6.43844 23.2955 7.21949V7.21949ZM12.3608 20.698C11.9359 20.1411 11.7062 19.4597 11.7072 18.7592C11.7072 16.9907 13.1418 15.5568 14.9115 15.5568C15.2413 15.5566 15.5691 15.6072 15.8835 15.7068V11.8345C15.5162 11.7842 15.1455 11.7629 14.7748 11.7707V14.7848C14.4603 14.6851 14.1324 14.6345 13.8024 14.6348C12.0327 14.6348 10.5983 16.0686 10.5983 17.8373C10.5983 19.0878 11.3153 20.1706 12.3608 20.698V20.698Z" fill="white"/>
<path fill-rule="evenodd" clip-rule="evenodd" d="M20.8069 10.1186C22.2957 11.182 24.1189 11.8077 26.0881 11.8077V8.82619C24.9889 8.59227 24.0159 8.01808 23.2842 7.21949C22.0319 6.43844 21.1295 5.14984 20.865 3.6416H18.1043V18.7701C18.0981 20.5338 16.666 21.9618 14.9001 21.9618C13.8594 21.9618 12.9348 21.466 12.3494 20.698C11.3038 20.1706 10.5868 19.0878 10.5868 17.8373C10.5868 16.0686 12.0212 14.6348 13.791 14.6348C14.13 14.6348 14.4568 14.6875 14.7634 14.7848V11.7707C10.9628 11.8492 7.90625 14.953 7.90625 18.7702C7.90625 20.6757 8.66744 22.4032 9.90273 23.6653C11.0172 24.4133 12.3589 24.8494 13.8023 24.8494C17.6708 24.8494 20.8069 21.7149 20.8069 17.8483V10.1186Z" fill="white"/>
<path fill-rule="evenodd" clip-rule="evenodd" d="M26.0955 8.82737V8.02117C25.1042 8.02266 24.1325 7.74521 23.2915 7.22054C24.036 8.03515 25.0163 8.59691 26.0955 8.82737V8.82737ZM20.8724 3.64278C20.8471 3.49866 20.8277 3.35356 20.8143 3.20786V2.7207H17.0025V17.8493C16.9964 19.6129 15.5644 21.0409 13.7983 21.0409C13.2798 21.0409 12.7903 20.9179 12.3567 20.6992C12.9422 21.4672 13.8668 21.9629 14.9074 21.9629C16.6732 21.9629 18.1055 20.5349 18.1117 18.7713V3.64278H20.8724ZM14.7709 11.7719V10.9136C14.4524 10.8701 14.1312 10.8483 13.8098 10.8485C9.94084 10.8485 6.80469 13.983 6.80469 17.8493C6.80469 20.2734 8.03725 22.4097 9.91024 23.6663C8.67496 22.4043 7.91377 20.6768 7.91377 18.7713C7.91377 14.9542 10.9702 11.8504 14.7709 11.7719V11.7719Z" fill="white"/>
<path fill-rule="evenodd" clip-rule="evenodd" d="M21.0629 31.2797C22.0974 31.2797 22.9363 30.4478 22.9363 29.4216C22.9363 28.3955 22.0974 27.5635 21.0629 27.5635H21.0373C20.0028 27.5635 19.1641 28.3955 19.1641 29.4216C19.1641 30.4478 20.0028 31.2797 21.0373 31.2797H21.0629ZM20.1392 29.4216C20.1392 28.9225 20.5472 28.5182 21.0504 28.5182C21.5532 28.5182 21.9612 28.9225 21.9612 29.4216C21.9612 29.9208 21.5532 30.3254 21.0504 30.3254C20.5472 30.3252 20.1392 29.9208 20.1392 29.4216Z" fill="white"/>
</svg>
