<svg width="13" height="13" viewBox="0 0 13 13" fill="none" xmlns="http://www.w3.org/2000/svg">
<g opacity="0.7" clip-path="url(#clip0_652_4779)">
<rect width="12.4616" height="12.4616" transform="translate(0.40625 0.494141)" fill="white" style="mix-blend-mode:color-burn"/>
<path fill-rule="evenodd" clip-rule="evenodd" d="M1.65241 0.494141H11.6217C12.31 0.494141 12.8679 1.05202 12.8679 1.7403V11.7096C12.8679 12.3979 12.31 12.9558 11.6217 12.9558H1.65241C0.964133 12.9558 0.40625 12.3979 0.40625 11.7096V1.7403C0.40625 1.05202 0.964133 0.494141 1.65241 0.494141Z" fill="#8E7A7A"/>
<path fill-rule="evenodd" clip-rule="evenodd" d="M8.22843 11.9587C8.60761 11.9587 8.91502 11.6538 8.91502 11.2777C8.91502 10.9016 8.60761 10.5967 8.22843 10.5967H8.125C8.50418 10.5967 8.81159 10.9016 8.81159 11.2777C8.81159 11.6538 8.50418 11.9587 8.125 11.9587H8.22843Z" fill="white"/>
<path fill-rule="evenodd" clip-rule="evenodd" d="M8.1182 10.5967H8.01476C7.63558 10.5967 7.32812 10.9016 7.32812 11.2777C7.32812 11.6538 7.63558 11.9587 8.01476 11.9587H8.1182C7.73896 11.9587 7.43156 11.6538 7.43156 11.2777C7.43156 10.9016 7.73896 10.5967 8.1182 10.5967Z" fill="white"/>
<path d="M8.12298 11.6095C8.3074 11.6095 8.45691 11.4613 8.45691 11.2784C8.45691 11.0955 8.3074 10.9473 8.12298 10.9473C7.93856 10.9473 7.78906 11.0955 7.78906 11.2784C7.78906 11.4613 7.93856 11.6095 8.12298 11.6095Z" fill="#C1B9B9"/>
<path fill-rule="evenodd" clip-rule="evenodd" d="M2.89844 10.2891V10.6343H3.30279V11.9496H3.7073V10.6436H4.03643L4.14929 10.2891H2.89844ZM6.209 10.2891V10.6343H6.61335V11.9496H7.01786V10.6436H7.34699L7.45985 10.2891H6.209ZM4.22461 10.485C4.22461 10.3768 4.31288 10.2891 4.42195 10.2891C4.53111 10.2891 4.61949 10.3768 4.61949 10.485C4.61949 10.5931 4.53116 10.6809 4.42195 10.6809C4.31288 10.6808 4.22461 10.5931 4.22461 10.485ZM4.22461 10.8208H4.61949V11.9496H4.22461V10.8208ZM4.78882 10.2891V11.9496H5.18385V11.5205L5.30613 11.4085L5.69169 11.9589H6.11489L5.55995 11.1566L6.05841 10.6715H5.57879L5.18385 11.0633V10.2891H4.78882ZM9.04921 10.2891V11.9496H9.44429V11.5205L9.56651 11.4085L9.95218 11.9589H10.3754L9.82048 11.1566L10.3189 10.6715H9.83932L9.44429 11.0633V10.2891H9.04921Z" fill="white"/>
<path fill-rule="evenodd" clip-rule="evenodd" d="M8.44216 4.54105C8.98768 4.9308 9.65602 5.16015 10.3778 5.16015V3.77187C10.2412 3.77193 10.1049 3.75768 9.9713 3.72935V4.82214C9.24957 4.82214 8.58133 4.59279 8.03566 4.20304V7.03607C8.03566 8.45331 6.8862 9.60213 5.46831 9.60213C4.93929 9.60213 4.44756 9.44227 4.03906 9.16811C4.50528 9.64454 5.15543 9.94014 5.87471 9.94014C7.2927 9.94014 8.44221 8.79132 8.44221 7.37403V4.54105H8.44216ZM8.94362 3.14047C8.66482 2.83605 8.48179 2.44261 8.44216 2.00765V1.8291H8.05694C8.1539 2.3819 8.48463 2.8542 8.94362 3.14047ZM4.93585 8.08061C4.7801 7.87649 4.69591 7.62675 4.69629 7.37C4.69629 6.72179 5.22207 6.19626 5.87072 6.19626C5.99159 6.19618 6.11176 6.21472 6.22698 6.25124V4.83196C6.09235 4.81352 5.95648 4.8057 5.82063 4.80858V5.91328C5.70536 5.87676 5.58515 5.85821 5.46423 5.8583C4.81557 5.8583 4.28984 6.38383 4.28984 7.03209C4.28984 7.49043 4.55263 7.8873 4.93585 8.08061Z" fill="white"/>
<path fill-rule="evenodd" clip-rule="evenodd" d="M8.03303 4.20304C8.5787 4.59279 9.24695 4.82214 9.96868 4.82214V3.72935C9.56582 3.64362 9.20916 3.43316 8.94099 3.14047C8.482 2.8542 8.15127 2.3819 8.05432 1.8291H7.04248V7.37398C7.04019 8.02039 6.51531 8.54378 5.86805 8.54378C5.48662 8.54378 5.14776 8.36209 4.93317 8.08061C4.54995 7.8873 4.28716 7.49043 4.28716 7.03209C4.28716 6.38383 4.8129 5.8583 5.46155 5.8583C5.58582 5.8583 5.7056 5.87764 5.81795 5.91328V4.80858C4.42499 4.83734 3.30469 5.97494 3.30469 7.37403C3.30469 8.07243 3.58368 8.70559 4.03644 9.16816C4.44493 9.44232 4.93666 9.60218 5.46569 9.60218C6.88357 9.60218 8.03303 8.45331 8.03303 7.03612V4.20304Z" fill="white"/>
<path fill-rule="evenodd" clip-rule="evenodd" d="M9.96887 3.72942V3.43393C9.60556 3.43448 9.24943 3.33279 8.94118 3.14048C9.21403 3.43906 9.57332 3.64495 9.96887 3.72942ZM8.05451 1.82917C8.04525 1.77635 8.03815 1.72317 8.03323 1.66976V1.49121H6.63613V7.03614C6.63389 7.6825 6.10905 8.20589 5.46175 8.20589C5.27168 8.20589 5.09228 8.16083 4.93337 8.08068C5.14796 8.36216 5.48682 8.54385 5.86824 8.54385C6.51545 8.54385 7.04038 8.02046 7.04268 7.37405V1.82917H8.05451ZM5.8182 4.80865V4.49407C5.70146 4.47811 5.58376 4.47013 5.46593 4.47019C4.0479 4.47019 2.89844 5.61906 2.89844 7.03614C2.89844 7.92461 3.3502 8.7076 4.03668 9.16818C3.58393 8.7056 3.30494 8.07245 3.30494 7.37405C3.30494 5.97501 4.42519 4.83741 5.8182 4.80865Z" fill="white"/>
<path fill-rule="evenodd" clip-rule="evenodd" d="M8.12564 11.9587C8.50482 11.9587 8.81228 11.6538 8.81228 11.2777C8.81228 10.9016 8.50482 10.5967 8.12564 10.5967H8.11627C7.73709 10.5967 7.42969 10.9016 7.42969 11.2777C7.42969 11.6538 7.73709 11.9587 8.11627 11.9587H8.12564ZM7.78709 11.2777C7.78709 11.0948 7.93662 10.9466 8.12106 10.9466C8.30534 10.9466 8.45488 11.0948 8.45488 11.2777C8.45488 11.4607 8.30534 11.609 8.12106 11.609C7.93662 11.6089 7.78709 11.4607 7.78709 11.2777Z" fill="white"/>
</g>
<defs>
<clipPath id="clip0_652_4779">
<rect width="12.4616" height="12.4616" fill="white" transform="translate(0.40625 0.494141)"/>
</clipPath>
</defs>
</svg>
