<svg width="34" height="33" viewBox="0 0 34 33" fill="none" xmlns="http://www.w3.org/2000/svg">
<g opacity="0.4" clip-path="url(#clip0_652_4656)">
<rect width="32.4969" height="32.4969" transform="translate(0.632812 0.344727)" fill="white" style="mix-blend-mode:color-burn"/>
<path fill-rule="evenodd" clip-rule="evenodd" d="M3.8825 0.344727H29.88C31.6749 0.344727 33.1297 1.79955 33.1297 3.59441V29.5919C33.1297 31.3868 31.6749 32.8416 29.88 32.8416H3.8825C2.08763 32.8416 0.632812 31.3868 0.632812 29.5919V3.59441C0.632812 1.79955 2.08763 0.344727 3.8825 0.344727Z" fill="#010101"/>
<path fill-rule="evenodd" clip-rule="evenodd" d="M21.0353 30.2414C22.0242 30.2414 22.8258 29.4462 22.8258 28.4655C22.8258 27.4847 22.0242 26.6895 21.0353 26.6895H20.7656C21.7544 26.6895 22.5561 27.4847 22.5561 28.4655C22.5561 29.4462 21.7544 30.2414 20.7656 30.2414H21.0353Z" fill="#C1C9CF"/>
<path fill-rule="evenodd" clip-rule="evenodd" d="M20.74 26.6895H20.4703C19.4815 26.6895 18.6797 27.4847 18.6797 28.4655C18.6797 29.4462 19.4815 30.2414 20.4703 30.2414H20.74C19.751 30.2414 18.9494 29.4462 18.9494 28.4655C18.9494 27.4847 19.751 26.6895 20.74 26.6895Z" fill="#C1C9CF"/>
<path d="M20.7536 29.3295C21.2345 29.3295 21.6244 28.9429 21.6244 28.466C21.6244 27.9891 21.2345 27.6025 20.7536 27.6025C20.2727 27.6025 19.8828 27.9891 19.8828 28.466C19.8828 28.9429 20.2727 29.3295 20.7536 29.3295Z" fill="#010101"/>
<path fill-rule="evenodd" clip-rule="evenodd" d="M7.13281 25.8867V26.7869H8.18727V30.217H9.24212V26.8112H10.1004L10.3947 25.8867H7.13281ZM15.7659 25.8867V26.7869H16.8204V30.217H17.8752V26.8112H18.7335L19.0278 25.8867H15.7659ZM10.5911 26.3976C10.5911 26.1155 10.8213 25.8867 11.1058 25.8867C11.3904 25.8867 11.6209 26.1155 11.6209 26.3976C11.6209 26.6796 11.3906 26.9084 11.1058 26.9084C10.8213 26.9083 10.5911 26.6796 10.5911 26.3976ZM10.5911 27.2734H11.6209V30.217H10.5911V27.2734ZM12.0625 25.8867V30.217H13.0926V29.0981L13.4115 28.8058L14.4169 30.2413H15.5205L14.0734 28.1492L15.3732 26.884H14.1225L13.0926 27.9057V25.8867H12.0625ZM23.1725 25.8867V30.217H24.2028V29.0981L24.5215 28.8058L25.5272 30.2413H26.6309L25.1838 28.1492L26.4837 26.884H25.2329L24.2028 27.9057V25.8867H23.1725Z" fill="white"/>
<path fill-rule="evenodd" clip-rule="evenodd" d="M21.5837 10.8983C23.0063 11.9146 24.7492 12.5127 26.6314 12.5127V8.89243C26.2752 8.89257 25.9199 8.85541 25.5714 8.78155V11.6313C23.6893 11.6313 21.9467 11.0332 20.5237 10.0168V17.4047C20.5237 21.1005 17.5262 24.0963 13.8287 24.0963C12.4491 24.0963 11.1668 23.6794 10.1016 22.9645C11.3173 24.2069 13.0128 24.9777 14.8885 24.9777C18.5862 24.9777 21.5839 21.9819 21.5839 18.286V10.8983H21.5837ZM22.8914 7.24588C22.1644 6.45205 21.6871 5.42606 21.5837 4.29179V3.82617H20.5792C20.832 5.26773 21.6945 6.49936 22.8914 7.24588ZM12.4402 20.1286C12.034 19.5962 11.8145 18.945 11.8154 18.2754C11.8154 16.5851 13.1866 15.2146 14.8781 15.2146C15.1933 15.2144 15.5066 15.2628 15.8071 15.358V11.6569C15.456 11.6088 15.1017 11.5884 14.7474 11.5959V14.4767C14.4468 14.3815 14.1334 14.3331 13.818 14.3333C12.1265 14.3333 10.7555 15.7038 10.7555 17.3943C10.7555 18.5895 11.4408 19.6245 12.4402 20.1286Z" fill="#C1C9CF"/>
<path fill-rule="evenodd" clip-rule="evenodd" d="M20.5257 10.0168C21.9486 11.0332 23.6912 11.6313 25.5733 11.6313V8.78155C24.5228 8.55798 23.5927 8.00917 22.8934 7.24588C21.6965 6.49936 20.834 5.26773 20.5812 3.82617H17.9426V18.2858C17.9366 19.9715 16.5678 21.3364 14.8799 21.3364C13.8853 21.3364 13.0016 20.8626 12.442 20.1286C11.4427 19.6245 10.7574 18.5895 10.7574 17.3943C10.7574 15.7038 12.1283 14.3333 13.8199 14.3333C14.1439 14.3333 14.4563 14.3838 14.7493 14.4767V11.5959C11.1168 11.6709 8.19531 14.6375 8.19531 18.286C8.19531 20.1072 8.92285 21.7583 10.1035 22.9646C11.1688 23.6795 12.4511 24.0964 13.8307 24.0964C17.5282 24.0964 20.5257 21.1005 20.5257 17.4048V10.0168Z" fill="white"/>
<path fill-rule="evenodd" clip-rule="evenodd" d="M25.5707 8.78103V8.01047C24.6233 8.0119 23.6946 7.74671 22.8908 7.24523C23.6023 8.02383 24.5393 8.56076 25.5707 8.78103ZM20.5786 3.82565C20.5544 3.6879 20.5359 3.54922 20.5231 3.40995V2.94434H16.8798V17.4041C16.8739 19.0897 15.5053 20.4546 13.8173 20.4546C13.3216 20.4546 12.8538 20.337 12.4394 20.128C12.999 20.8621 13.8827 21.3359 14.8773 21.3359C16.5651 21.3359 17.934 19.971 17.94 18.2853V3.82565H20.5786ZM14.7468 11.5954V10.775C14.4424 10.7334 14.1355 10.7126 13.8282 10.7128C10.1303 10.7128 7.13281 13.7087 7.13281 17.4041C7.13281 19.721 8.31089 21.7629 10.1011 22.964C8.9204 21.7577 8.19286 20.1066 8.19286 18.2853C8.19286 14.637 11.1142 11.6704 14.7468 11.5954Z" fill="#C1C9CF"/>
<path fill-rule="evenodd" clip-rule="evenodd" d="M20.768 30.2414C21.7568 30.2414 22.5586 29.4462 22.5586 28.4655C22.5586 27.4847 21.7568 26.6895 20.768 26.6895H20.7436C19.7548 26.6895 18.9531 27.4847 18.9531 28.4655C18.9531 29.4462 19.7548 30.2414 20.7436 30.2414H20.768ZM19.8851 28.4655C19.8851 27.9884 20.2751 27.602 20.756 27.602C21.2366 27.602 21.6266 27.9884 21.6266 28.4655C21.6266 28.9425 21.2366 29.3292 20.756 29.3292C20.2751 29.3291 19.8851 28.9425 19.8851 28.4655Z" fill="white"/>
</g>
<defs>
<clipPath id="clip0_652_4656">
<rect width="32.4969" height="32.4969" fill="white" transform="translate(0.632812 0.344727)"/>
</clipPath>
</defs>
</svg>
